# xmcd
#
# Track frame offsets: 
#        150
#        16350
#        32848
#        52948
#
# Disc length: 938 seconds
#
# Revision: 0
# Processed by: cddbd v1.5.2PL0 Copyright (c) Steve Scherf et al.
# Submitted via: ExactAudioCopy v1.3
#
DISCID=2703a804
DTITLE=神田美咲 - 弾き語り
DYEAR=2019
DGENRE=Acoustic
TTITLE0=３分間の魔法
TTITLE1=さよならの歌
TTITLE2=おやすみ
TTITLE3=?
EXTD=
EXTT0=
EXTT1=
EXTT2=
EXTT3=
PLAYORDER=
